<svg version="1.1" id="Layer_1" xmlns="http://www.w3.org/2000/svg" xmlns:xlink="http://www.w3.org/1999/xlink" x="0px" y="0px"
	 width="100%" viewBox="0 0 612 612" enable-background="new 0 0 612 612" xml:space="preserve">
<path fill="#000000" opacity="1.000000" stroke="none" 
	d="
M410.000000,613.000000 
	C273.333344,613.000000 137.166718,613.000000 1.000055,613.000000 
	C1.000036,409.000061 1.000036,205.000122 1.000018,1.000137 
	C204.999893,1.000091 408.999786,1.000091 612.999756,1.000046 
	C612.999878,204.999863 612.999878,408.999725 612.999939,612.999756 
	C545.500000,613.000000 478.000000,613.000000 410.000000,613.000000 
M446.809143,433.761444 
	C448.166595,431.206451 449.524048,428.651428 451.136932,425.406067 
	C451.426788,424.263519 451.716614,423.120972 452.767761,421.671143 
	C453.512268,417.738251 454.896179,413.806854 454.905396,409.872253 
	C455.043854,350.838684 454.989075,291.804749 455.042175,232.770905 
	C455.044464,230.206985 456.132812,227.582245 455.819550,225.098816 
	C455.555206,223.003647 453.988312,221.072800 452.569489,218.532898 
	C448.058838,215.413956 443.560608,212.276871 439.034637,209.180313 
	C432.201050,204.504944 425.398132,199.782135 418.490387,195.218414 
	C410.309113,189.813309 402.108795,184.428741 393.766937,179.277893 
	C387.992615,175.712448 382.924042,170.718643 374.620392,174.524582 
	C369.545044,176.850845 367.204010,180.589752 366.232452,184.793503 
	C364.985809,190.187485 366.123016,195.684036 371.567322,199.276764 
	C378.789459,204.042694 385.609467,209.460632 393.053101,213.830444 
	C396.807922,216.034744 398.104492,218.980469 398.846893,222.623520 
	C399.422028,225.445862 399.420135,228.389938 400.046448,231.196976 
	C402.860992,243.811630 410.368347,252.994339 421.745728,258.676056 
	C425.101349,260.351807 426.044800,262.284393 426.045288,265.430939 
	C426.052368,311.762848 426.090240,358.094788 426.011993,404.426575 
	C425.999054,412.081268 423.483063,418.504089 415.397797,421.149689 
	C414.286102,421.513489 412.904572,421.610565 411.788391,421.309906 
	C405.674866,419.663361 403.052582,415.732727 402.999481,408.511475 
	C402.668884,363.577606 402.376099,318.643372 401.962463,273.710266 
	C401.887787,265.596436 397.438538,258.885040 393.849091,252.023376 
	C392.620361,249.674515 390.209137,247.798523 388.019684,246.122559 
	C377.320618,237.932785 365.186005,234.742432 351.786285,235.925888 
	C349.939270,236.089020 348.004913,235.263123 346.007477,233.975708 
	C346.005554,215.687195 346.039276,197.398560 345.965973,179.110321 
	C345.954041,176.130005 346.193970,172.884521 342.786896,170.326004 
	C339.079865,165.850266 334.266571,164.296692 328.540253,164.305481 
	C284.574921,164.372986 240.609268,164.372406 196.644028,164.269180 
	C186.398499,164.245117 180.999115,169.177612 180.999130,179.228333 
	C180.999283,252.171463 180.976929,325.114624 181.029587,398.057678 
	C181.035614,406.407867 178.236908,408.738708 171.144104,409.980316 
	C163.965210,411.237030 161.075470,414.734711 161.010422,422.182556 
	C160.958069,428.177429 160.997986,434.173096 160.999588,440.168427 
	C161.001694,448.011871 163.940094,450.909729 172.334229,451.818237 
	C189.581894,451.877747 206.829559,451.947998 224.077240,451.954681 
	C224.723099,451.954926 225.369186,451.336700 226.950577,451.001831 
	C253.295334,451.003448 279.640076,451.005066 306.334229,451.818207 
	C318.250153,451.877716 330.166107,451.952759 342.082031,451.954071 
	C342.726379,451.954132 343.370789,451.336670 344.945129,451.001831 
	C348.593079,451.001160 352.242401,451.062317 355.888641,450.983429 
	C359.987183,450.894775 365.886963,445.367950 365.962738,441.372528 
	C366.088531,434.742249 366.159088,428.102631 365.946075,421.476807 
	C365.764252,415.821655 361.835999,412.172089 356.318451,410.895081 
	C353.018066,410.131226 349.976624,408.248627 346.956207,406.028412 
	C346.637909,403.305145 346.052490,400.582794 346.043427,397.858490 
	C345.968719,375.417236 346.000946,352.975555 346.000916,330.534027 
	C346.000916,310.752228 346.127930,290.968933 345.901794,271.189728 
	C345.852356,266.868622 347.282288,265.563324 351.346619,265.960388 
	C356.547363,266.468445 361.777130,266.679077 367.270386,267.669800 
	C371.221252,270.405853 372.999786,274.273529 373.033691,279.757477 
	C373.062592,280.541199 373.091492,281.324921 373.008606,283.026337 
	C373.065918,297.008118 373.123260,310.989899 373.041229,325.903442 
	C373.031708,333.211823 373.020325,340.520233 373.013062,347.828613 
	C372.991913,369.089447 372.932373,390.350464 373.040192,411.610626 
	C373.047577,413.065918 374.312775,414.514862 375.003632,416.822266 
	C376.281647,421.416321 377.354980,426.083252 378.949738,430.564575 
	C379.500824,432.113037 381.830414,432.986298 382.517944,434.536072 
	C385.042755,440.227234 389.501038,443.620605 395.208984,446.727539 
	C408.379700,451.398010 421.429749,453.343262 434.561066,444.996216 
	C434.735626,444.956879 434.910156,444.917572 435.816315,445.000702 
	C440.007446,442.128906 444.623199,439.661255 446.192139,434.173706 
	C446.192139,434.173706 446.171021,434.074554 446.809143,433.761444 
z"/>
<path fill="#848995" opacity="1.000000" stroke="none" 
	d="
M305.984833,451.006683 
	C279.640076,451.005066 253.295334,451.003448 226.013306,451.001221 
	C207.378967,451.002655 189.681900,451.004669 171.984833,451.006683 
	C163.940094,450.909729 161.001694,448.011871 160.999588,440.168427 
	C160.997986,434.173096 160.958069,428.177429 161.010422,422.182556 
	C161.075470,414.734711 163.965210,411.237030 171.144104,409.980316 
	C178.236908,408.738708 181.035614,406.407867 181.029587,398.057678 
	C180.976929,325.114624 180.999283,252.171463 180.999130,179.228333 
	C180.999115,169.177612 186.398499,164.245117 196.644028,164.269180 
	C240.609268,164.372406 284.574921,164.372986 328.540253,164.305481 
	C334.266571,164.296692 339.079865,165.850266 342.900085,171.063156 
	C343.673553,177.828033 344.778473,183.846497 344.904083,189.885345 
	C345.189941,203.625031 344.965881,217.374863 345.043762,231.120041 
	C345.050903,232.380371 345.739075,233.636841 346.110962,234.895096 
	C348.004913,235.263123 349.939270,236.089020 351.786285,235.925888 
	C365.186005,234.742432 377.320618,237.932785 388.019684,246.122559 
	C390.209137,247.798523 392.620361,249.674515 393.849091,252.023376 
	C397.438538,258.885040 401.887787,265.596436 401.962463,273.710266 
	C402.376099,318.643372 402.668884,363.577606 402.999481,408.511475 
	C403.052582,415.732727 405.674866,419.663361 411.788391,421.309906 
	C412.904572,421.610565 414.286102,421.513489 415.397797,421.149689 
	C423.483063,418.504089 425.999054,412.081268 426.011993,404.426575 
	C426.090240,358.094788 426.052368,311.762848 426.045288,265.430939 
	C426.044800,262.284393 425.101349,260.351807 421.745728,258.676056 
	C410.368347,252.994339 402.860992,243.811630 400.046448,231.196976 
	C399.420135,228.389938 399.422028,225.445862 398.846893,222.623520 
	C398.104492,218.980469 396.807922,216.034744 393.053101,213.830444 
	C385.609467,209.460632 378.789459,204.042694 371.567322,199.276764 
	C366.123016,195.684036 364.985809,190.187485 366.232452,184.793503 
	C367.204010,180.589752 369.545044,176.850845 374.620392,174.524582 
	C382.924042,170.718643 387.992615,175.712448 393.766937,179.277893 
	C402.108795,184.428741 410.309113,189.813309 418.490387,195.218414 
	C425.398132,199.782135 432.201050,204.504944 439.034637,209.180313 
	C443.560608,212.276871 448.058838,215.413956 452.813873,219.219833 
	C453.371033,222.001755 453.955261,224.096512 453.957031,226.191757 
	C454.006409,284.331482 454.053009,342.471405 453.908539,400.610779 
	C453.894257,406.358612 452.620148,412.100098 452.001770,417.852142 
	C451.855621,419.211700 451.997223,420.602173 452.006470,421.978424 
	C451.716614,423.120972 451.426788,424.263519 450.683685,425.851929 
	C448.877289,428.890045 447.524139,431.482300 446.171021,434.074554 
	C446.171021,434.074554 446.192139,434.173706 445.942352,433.825623 
	C442.161163,436.667175 438.606567,439.832123 435.138580,443.089264 
	C434.831451,443.377747 435.089233,444.267670 435.084656,444.878265 
	C434.910156,444.917572 434.735626,444.956879 433.889526,444.927399 
	C426.994446,445.789825 421.648438,450.303131 414.835327,449.030640 
	C408.255859,447.801727 401.596985,446.997955 394.972992,446.007385 
	C389.501038,443.620605 385.042755,440.227234 382.517944,434.536072 
	C381.830414,432.986298 379.500824,432.113037 378.949738,430.564575 
	C377.354980,426.083252 376.281647,421.416321 374.887878,416.154419 
	C374.616180,414.985260 374.460236,414.483948 374.474548,413.609985 
	C374.750763,412.752167 374.949249,412.267029 374.949554,411.781738 
	C374.974823,368.936676 375.002594,326.091553 374.918915,283.246674 
	C374.916138,281.824127 373.774231,280.403809 373.163330,278.982452 
	C372.999786,274.273529 371.221252,270.405853 366.949921,266.991089 
	C359.530609,265.712128 352.431763,265.111877 345.318695,264.510437 
	C345.131470,266.486084 345.014954,267.141907 345.014923,267.797760 
	C345.010986,312.526245 344.997437,357.254761 345.096802,401.983032 
	C345.100403,403.612946 346.219543,405.240326 346.818787,406.868896 
	C349.976624,408.248627 353.018066,410.131226 356.318451,410.895081 
	C361.835999,412.172089 365.764252,415.821655 365.946075,421.476807 
	C366.159088,428.102631 366.088531,434.742249 365.962738,441.372528 
	C365.886963,445.367950 359.987183,450.894775 355.888641,450.983429 
	C352.242401,451.062317 348.593079,451.001160 344.010590,451.001221 
	C330.712311,451.002655 318.348572,451.004669 305.984833,451.006683 
M316.461731,260.253693 
	C316.632477,259.445404 316.950439,258.637421 316.952209,257.828735 
	C316.986328,242.178299 317.005157,226.527710 316.947815,210.877426 
	C316.943176,209.606461 316.364990,208.337601 315.985291,206.432816 
	C315.716583,205.641144 315.447876,204.849472 315.040344,203.303864 
	C314.165192,199.186340 312.175598,195.626160 307.767578,195.115875 
	C301.222504,194.358185 294.589630,194.008057 287.998779,194.061157 
	C266.753632,194.232346 245.511032,194.700867 224.266525,194.984207 
	C215.826981,195.096786 212.072403,198.189682 212.093063,206.751663 
	C212.139481,225.991653 212.605042,245.231873 213.043427,264.468719 
	C213.142548,268.817169 217.600830,273.009369 221.953369,273.018768 
	C249.086227,273.077454 276.219910,273.148987 303.351837,272.978882 
	C310.929474,272.931396 314.655914,269.066589 315.497864,261.666229 
	C315.700439,261.444275 315.880951,261.205658 316.461731,260.253693 
z"/>
<path fill="#FDFDFD" opacity="1.000000" stroke="none" 
	d="
M452.387115,421.824768 
	C451.997223,420.602173 451.855621,419.211700 452.001770,417.852142 
	C452.620148,412.100098 453.894257,406.358612 453.908539,400.610779 
	C454.053009,342.471405 454.006409,284.331482 453.957031,226.191757 
	C453.955261,224.096512 453.371033,222.001755 453.028107,219.488007 
	C453.988312,221.072800 455.555206,223.003647 455.819550,225.098816 
	C456.132812,227.582245 455.044464,230.206985 455.042175,232.770905 
	C454.989075,291.804749 455.043854,350.838684 454.905396,409.872253 
	C454.896179,413.806854 453.512268,417.738251 452.387115,421.824768 
z"/>
<path fill="#FEFEFE" opacity="1.000000" stroke="none" 
	d="
M346.887512,406.448669 
	C346.219543,405.240326 345.100403,403.612946 345.096802,401.983032 
	C344.997437,357.254761 345.010986,312.526245 345.014923,267.797760 
	C345.014954,267.141907 345.131470,266.486084 345.318695,264.510437 
	C352.431763,265.111877 359.530609,265.712128 366.811920,266.665100 
	C361.777130,266.679077 356.547363,266.468445 351.346619,265.960388 
	C347.282288,265.563324 345.852356,266.868622 345.901794,271.189728 
	C346.127930,290.968933 346.000916,310.752228 346.000916,330.534027 
	C346.000946,352.975555 345.968719,375.417236 346.043427,397.858490 
	C346.052490,400.582794 346.637909,403.305145 346.887512,406.448669 
z"/>
<path fill="#7E7E7E" opacity="1.000000" stroke="none" 
	d="
M373.098511,279.369965 
	C373.774231,280.403809 374.916138,281.824127 374.918915,283.246674 
	C375.002594,326.091553 374.974823,368.936676 374.949554,411.781738 
	C374.949249,412.267029 374.750763,412.752167 374.365845,413.152435 
	C373.993439,383.696716 373.899963,354.325928 373.882812,324.494873 
	C373.968262,311.429321 374.003967,298.823914 373.948395,286.218964 
	C373.942352,284.847656 373.409088,283.478699 373.120361,282.108643 
	C373.091492,281.324921 373.062592,280.541199 373.098511,279.369965 
z"/>
<path fill="#E6E6E6" opacity="1.000000" stroke="none" 
	d="
M373.806488,324.955170 
	C373.899963,354.325928 373.993439,383.696716 374.195618,413.525024 
	C374.460236,414.483948 374.616180,414.985260 374.882568,415.726685 
	C374.312775,414.514862 373.047577,413.065918 373.040192,411.610626 
	C372.932373,390.350464 372.991913,369.089447 373.013062,347.828613 
	C373.020325,340.520233 373.031708,333.211823 373.267212,325.427185 
	C373.493195,324.950897 373.806488,324.955170 373.806488,324.955170 
z"/>
<path fill="#FDFDFD" opacity="1.000000" stroke="none" 
	d="
M346.059204,234.435394 
	C345.739075,233.636841 345.050903,232.380371 345.043762,231.120041 
	C344.965881,217.374863 345.189941,203.625031 344.904083,189.885345 
	C344.778473,183.846497 343.673553,177.828033 343.010254,171.390625 
	C346.193970,172.884521 345.954041,176.130005 345.965973,179.110321 
	C346.039276,197.398560 346.005554,215.687195 346.059204,234.435394 
z"/>
<path fill="#FAFAFA" opacity="1.000000" stroke="none" 
	d="
M395.091003,446.367462 
	C401.596985,446.997955 408.255859,447.801727 414.835327,449.030640 
	C421.648438,450.303131 426.994446,445.789825 433.621216,444.933533 
	C421.429749,453.343262 408.379700,451.398010 395.091003,446.367462 
z"/>
<path fill="#FFFFFF" opacity="1.000000" stroke="none" 
	d="
M172.159531,451.412476 
	C189.681900,451.004669 207.378967,451.002655 225.545593,451.003662 
	C225.369186,451.336700 224.723099,451.954926 224.077240,451.954681 
	C206.829559,451.947998 189.581894,451.877747 172.159531,451.412476 
z"/>
<path fill="#FFFFFF" opacity="1.000000" stroke="none" 
	d="
M373.882812,324.494873 
	C373.806488,324.955170 373.493195,324.950897 373.336884,324.961304 
	C373.123260,310.989899 373.065918,297.008118 373.064484,282.567505 
	C373.409088,283.478699 373.942352,284.847656 373.948395,286.218964 
	C374.003967,298.823914 373.968262,311.429321 373.882812,324.494873 
z"/>
<path fill="#FFFFFF" opacity="1.000000" stroke="none" 
	d="
M306.159546,451.412445 
	C318.348572,451.004669 330.712311,451.002655 343.545593,451.003662 
	C343.370789,451.336670 342.726379,451.954132 342.082031,451.954071 
	C330.166107,451.952759 318.250153,451.877716 306.159546,451.412445 
z"/>
<path fill="#F6F6F6" opacity="1.000000" stroke="none" 
	d="
M435.450500,444.939484 
	C435.089233,444.267670 434.831451,443.377747 435.138580,443.089264 
	C438.606567,439.832123 442.161163,436.667175 445.893555,433.839264 
	C444.623199,439.661255 440.007446,442.128906 435.450500,444.939484 
z"/>
<path fill="#F6F6F6" opacity="1.000000" stroke="none" 
	d="
M446.490051,433.917999 
	C447.524139,431.482300 448.877289,428.890045 450.555969,426.197083 
	C449.524048,428.651428 448.166595,431.206451 446.490051,433.917999 
z"/>
<path fill="#000000" opacity="1.000000" stroke="none" 
	d="
M315.163910,261.966980 
	C314.655914,269.066589 310.929474,272.931396 303.351837,272.978882 
	C276.219910,273.148987 249.086227,273.077454 221.953369,273.018768 
	C217.600830,273.009369 213.142548,268.817169 213.043427,264.468719 
	C212.605042,245.231873 212.139481,225.991653 212.093063,206.751663 
	C212.072403,198.189682 215.826981,195.096786 224.266525,194.984207 
	C245.511032,194.700867 266.753632,194.232346 287.998779,194.061157 
	C294.589630,194.008057 301.222504,194.358185 307.767578,195.115875 
	C312.175598,195.626160 314.165192,199.186340 315.044006,204.141769 
	C315.086426,223.975449 315.125153,242.971207 315.163910,261.966980 
z"/>
<path fill="#A8A8A8" opacity="1.000000" stroke="none" 
	d="
M315.330872,261.816589 
	C315.125153,242.971207 315.086426,223.975449 315.113434,204.518738 
	C315.447876,204.849472 315.716583,205.641144 316.007904,207.211365 
	C316.033478,225.643387 316.036438,243.296890 316.039429,260.950378 
	C315.880951,261.205658 315.700439,261.444275 315.330872,261.816589 
z"/>
<path fill="#7E7E7E" opacity="1.000000" stroke="none" 
	d="
M316.250580,260.602051 
	C316.036438,243.296890 316.033478,225.643387 316.041931,207.528839 
	C316.364990,208.337601 316.943176,209.606461 316.947815,210.877426 
	C317.005157,226.527710 316.986328,242.178299 316.952209,257.828735 
	C316.950439,258.637421 316.632477,259.445404 316.250580,260.602051 
z"/>
</svg>